# xmcd CD database file
#
# Track frame offsets:
#	150
#	17698
#	38631
#	55951
#	79308
#	95277
#	113133
#	132537
#	145773
#	163585
#
# Disc length: 2427 seconds
#
# Revision: 1
# Processed by: cddbd v1.5.2PL0 Copyright (c) Steve Scherf et al.
# Submitted via: CDex 1.50
#
DISCID=7f09790a
DTITLE=Andrea Schroeder - Where The Wild Oceans End
DYEAR=2014
DGENRE=Singer - Songwriter
TTITLE0=Dead Man's Eyes 
TTITLE1=Ghosts Of Berlin 
TTITLE2=Until The End 
TTITLE3=Helden
TTITLE4=Fireland 
TTITLE5=The Spider 
TTITLE6=Where The Wild Oceans End
TTITLE7=The Rattlesnake 
TTITLE8=Summer Came To Say Goodbye
TTITLE9=Walk Into The Silence 
EXTD=YEAR: 2014
EXTT0=
EXTT1=
EXTT2=
EXTT3=
EXTT4=
EXTT5=
EXTT6=
EXTT7=
EXTT8=
EXTT9=
PLAYORDER=
